<svg width="32" height="32" viewBox="0 0 32 32" fill="none" xmlns="http://www.w3.org/2000/svg">
  <!-- Medical Cross Background Circle -->
  <circle
    cx="16"
    cy="16"
    r="15"
    fill="url(#faviconGradient)"
    stroke="#0ea5e9"
    stroke-width="1"
  />
  
  <!-- Medical Cross -->
  <rect
    x="14"
    y="9"
    width="4"
    height="14"
    rx="1"
    fill="white"
  />
  <rect
    x="9"
    y="14"
    width="14"
    height="4"
    rx="1"
    fill="white"
  />
  
  <!-- Data Chart Symbol -->
  <rect x="11" y="24" width="1.5" height="4" rx="0.5" fill="rgba(255,255,255,0.9)" />
  <rect x="13.25" y="22" width="1.5" height="6" rx="0.5" fill="rgba(255,255,255,0.9)" />
  <rect x="15.5" y="20" width="1.5" height="8" rx="0.5" fill="rgba(255,255,255,0.9)" />
  <rect x="17.75" y="23" width="1.5" height="5" rx="0.5" fill="rgba(255,255,255,0.9)" />
  
  <!-- Pulse Line -->
  <path
    d="M4 10 L8 10 L10 6 L12 14 L14 8 L16 12 L18 4 L20 16 L22 10 L24 10 L28 10"
    stroke="rgba(255,255,255,0.9)"
    stroke-width="1"
    fill="none"
    stroke-linecap="round"
    stroke-linejoin="round"
  />
  
  <defs>
    <linearGradient id="faviconGradient" x1="0%" y1="0%" x2="100%" y2="100%">
      <stop offset="0%" stop-color="#0ea5e9" />
      <stop offset="50%" stop-color="#3b82f6" />
      <stop offset="100%" stop-color="#6366f1" />
    </linearGradient>
  </defs>
</svg>